<svg width="800" height="800" viewBox="0 0 800 800" fill="none" xmlns="http://www.w3.org/2000/svg">
<rect width="800" height="800" rx="400" fill="white"/>
<path d="M330 239V274H470V239C470 235.15 466.85 232 463 232H337C333.15 232 330 235.15 330 239ZM288 274V239C288 211.963 309.963 190 337 190H463C490.037 190 512 211.963 512 239V274H568C598.887 274 624 299.113 624 330V554C624 584.887 598.887 610 568 610H232C201.113 610 176 584.887 176 554V330C176 299.113 201.113 274 232 274H288Z" fill="black"/>
</svg>
